<svg width="45" height="45" viewBox="0 0 33 32" fill="currentColor" xmlns="http://www.w3.org/2000/svg">
<path d="M21.274 19.5063L17.7636 16.0009L21.274 12.4955C21.7576 12.0119 21.7576 11.227 21.2753 10.7421C20.7905 10.2561 20.0056 10.2573 19.5207 10.7409L16.0079 14.2488L12.495 10.7409C12.0102 10.2573 11.2253 10.2561 10.7405 10.7421C10.2569 11.227 10.2569 12.0119 10.7417 12.4955L14.2521 16.0009L10.7417 19.5063C10.2569 19.9899 10.2569 20.7748 10.7405 21.2597C10.9823 21.5027 11.3009 21.623 11.6184 21.623C11.9359 21.623 12.2533 21.5015 12.4951 21.2609L16.0079 17.753L19.5208 21.2609C19.7626 21.5027 20.08 21.623 20.3975 21.623C20.7149 21.623 21.0336 21.5015 21.2754 21.2597C21.7589 20.7748 21.7589 19.9899 21.274 19.5063Z" fill="currentColor"/>
<path d="M27.328 4.68066C21.0872 -1.56022 10.9293 -1.56022 4.68838 4.68066C1.66528 7.70494 0 11.725 0 16.0005C0 20.2759 1.66528 24.296 4.68838 27.3191C7.80944 30.4401 11.9088 32 16.0082 32C20.1075 32 24.207 30.4401 27.328 27.3191C33.5688 21.0782 33.5688 10.9227 27.328 4.68066ZM25.5747 25.5657C20.2998 30.8406 11.7166 30.8406 6.44168 25.5657C3.88734 23.0114 2.47995 19.6138 2.47995 16.0005C2.47995 12.3871 3.88734 8.98955 6.44168 6.43396C11.7166 1.15904 20.2998 1.16029 25.5747 6.43396C30.8483 11.7089 30.8483 20.292 25.5747 25.5657Z" fill="currentColor"/>
</svg>
