<svg xmlns="http://www.w3.org/2000/svg" version="1.1" xmlnsxlink="http://www.w3.org/1999/xlink" xmlnssvgjs="http://svgjs.com/svgjs" width="40" height="40" x="0" y="0" viewBox="0 0 32 32" style="enable-background:new 0 0 512 512" xmlspace="preserve" className=""><g><g xmlns="http://www.w3.org/2000/svg" id="_32" data-name="32"><path d="m21.7392 5.4575a6.4919 6.4919 0 0 0 -11.4782 0 5.9871 5.9871 0 1 0 -4.261 11.1862v12.3563a1 1 0 0 0 1 1h18a1 1 0 0 0 1-1v-12.3564a5.987 5.987 0 1 0 -4.2608-11.1861zm2.2608 22.5425h-16v-2h16zm.8027-13.08a1.0538 1.0538 0 0 0 -.8027.98v8.1h-16v-8.1a1.0546 1.0546 0 0 0 -.8022-.98 4.0007 4.0007 0 1 1 3.0122-7.255 1.024 1.024 0 0 0 1.5039-.5341 4.5 4.5 0 0 1 8.5727 0 1.0012 1.0012 0 0 0 .7069.66 1.0947 1.0947 0 0 0 .797-.1257 4.0008 4.0008 0 1 1 3.0122 7.2548z" fill="currentColor" data-original="#000000" class=""></path></g></g></svg>