<svg xmlns="http://www.w3.org/2000/svg" version="1.1" xmlns:xlink="http://www.w3.org/1999/xlink" xmlns:svgjs="http://svgjs.com/svgjs" width="512" height="512" x="0" y="0" viewBox="0 0 31.93 31.93" style="enable-background:new 0 0 512 512" xml:space="preserve" class=""><g>
<g xmlns="http://www.w3.org/2000/svg">
	<g>
		<path d="M15.966,0C7.162,0,0,7.162,0,15.965S7.162,31.93,15.966,31.93c8.802,0,15.964-7.162,15.964-15.965S24.768,0,15.966,0z     M15.966,28.184c-6.74,0-12.222-5.479-12.222-12.219c0-6.738,5.482-12.22,12.222-12.22c6.737,0,12.22,5.481,12.22,12.22    C28.186,22.702,22.703,28.184,15.966,28.184z" fill="#000000" data-original="#000000" class=""></path>
		<circle cx="15.966" cy="5.984" r="0.995" fill="#000000" data-original="#000000" class=""></circle>
		<circle cx="15.966" cy="25.821" r="0.996" fill="#000000" data-original="#000000" class=""></circle>
		<circle cx="25.883" cy="15.903" r="0.996" fill="#000000" data-original="#000000" class=""></circle>
		<circle cx="6.045" cy="15.903" r="0.996" fill="#000000" data-original="#000000" class=""></circle>
		<circle cx="22.977" cy="8.89" r="0.994" fill="#000000" data-original="#000000" class=""></circle>
		<circle cx="8.951" cy="22.916" r="0.995" fill="#000000" data-original="#000000" class=""></circle>
		<circle cx="22.977" cy="22.916" r="0.995" fill="#000000" data-original="#000000" class=""></circle>
		<circle cx="8.951" cy="8.89" r="0.995" fill="#000000" data-original="#000000" class=""></circle>
		<path d="M22.76,14.994h-4.256c-0.245-0.662-0.719-1.16-1.297-1.461V9.885c0-0.69-0.553-1.249-1.242-1.249    c-0.691,0-1.243,0.559-1.243,1.249v3.646c-0.91,0.454-1.488,1.373-1.488,2.433c0,1.509,1.223,2.748,2.733,2.748    c0.96,0,1.805-0.489,2.292-1.235h4.503c0.688,0,1.247-0.551,1.247-1.242C24.008,15.547,23.449,14.994,22.76,14.994z" fill="#000000" data-original="#000000" class=""></path>
	</g>
</g>
<g xmlns="http://www.w3.org/2000/svg">
</g>
<g xmlns="http://www.w3.org/2000/svg">
</g>
<g xmlns="http://www.w3.org/2000/svg">
</g>
<g xmlns="http://www.w3.org/2000/svg">
</g>
<g xmlns="http://www.w3.org/2000/svg">
</g>
<g xmlns="http://www.w3.org/2000/svg">
</g>
<g xmlns="http://www.w3.org/2000/svg">
</g>
<g xmlns="http://www.w3.org/2000/svg">
</g>
<g xmlns="http://www.w3.org/2000/svg">
</g>
<g xmlns="http://www.w3.org/2000/svg">
</g>
<g xmlns="http://www.w3.org/2000/svg">
</g>
<g xmlns="http://www.w3.org/2000/svg">
</g>
<g xmlns="http://www.w3.org/2000/svg">
</g>
<g xmlns="http://www.w3.org/2000/svg">
</g>
<g xmlns="http://www.w3.org/2000/svg">
</g>
</g></svg>