<svg width="45" height="45" viewBox="0 0 32 29" fill="none" xmlns="http://www.w3.org/2000/svg">
<path d="M5.16944 4.41145C5.57225 4.74929 5.66647 4.8524 5.66647 5.0907C5.66647 5.32901 5.57231 5.43212 5.1695 5.76989C4.7778 6.09835 4.72652 6.68214 5.05504 7.07384C5.23812 7.29215 5.50049 7.4047 5.76471 7.4047C5.97457 7.4047 6.1856 7.33374 6.35893 7.18836C6.82036 6.80141 7.51763 6.2167 7.51763 5.0907C7.51763 3.96471 6.82036 3.37993 6.35893 2.99304C5.95612 2.65526 5.86196 2.55209 5.86196 2.31391C5.86196 2.07579 5.95612 1.97262 6.35887 1.63491C6.75057 1.30652 6.80191 0.722724 6.47345 0.331021C6.145 -0.0608062 5.56121 -0.112145 5.1695 0.216435C4.70807 0.603325 4.01074 1.18792 4.01074 2.31391C4.0108 3.43984 4.70807 4.02456 5.16944 4.41145Z" fill="currentColor"/>
<path d="M9.67432 4.41145C10.0771 4.74929 10.1714 4.8524 10.1714 5.0907C10.1714 5.32901 10.0772 5.43212 9.67438 5.76989C9.28268 6.09835 9.2314 6.68214 9.55992 7.07384C9.743 7.29215 10.0054 7.4047 10.2696 7.4047C10.4794 7.4047 10.6905 7.33374 10.8638 7.18836C11.3252 6.80141 12.0225 6.2167 12.0225 5.0907C12.0225 3.96471 11.3252 3.37993 10.8638 2.99304C10.461 2.65526 10.3668 2.55209 10.3668 2.31391C10.3668 2.07579 10.461 1.97262 10.8637 1.63491C11.2555 1.30652 11.3068 0.722724 10.9783 0.331021C10.6499 -0.0608062 10.0661 -0.112145 9.67438 0.216435C9.21295 0.603325 8.51562 1.18792 8.51562 2.31391C8.51569 3.43984 9.21295 4.02456 9.67432 4.41145Z" fill="currentColor"/>
<path d="M14.1782 4.41145C14.581 4.74929 14.6753 4.8524 14.6753 5.0907C14.6753 5.32901 14.5811 5.43212 14.1783 5.76989C13.7866 6.09835 13.7353 6.68214 14.0638 7.07384C14.2469 7.29215 14.5093 7.4047 14.7735 7.4047C14.9834 7.4047 15.1944 7.33374 15.3677 7.18836C15.8291 6.80141 16.5264 6.2167 16.5264 5.0907C16.5264 3.96471 15.8291 3.37993 15.3677 2.99304C14.9649 2.65526 14.8707 2.55209 14.8707 2.31391C14.8707 2.07579 14.9649 1.97262 15.3677 1.63491C15.7594 1.30652 15.8107 0.722724 15.4822 0.331021C15.1538 -0.0608062 14.57 -0.112145 14.1783 0.216435C13.7169 0.603325 13.0195 1.18792 13.0195 2.31391C13.0196 3.43984 13.7169 4.02456 14.1782 4.41145Z" fill="currentColor"/>
<path d="M29.4333 10.4281H24.7437C23.6577 10.4281 22.7566 11.2341 22.6065 12.2793H20.1853L20.2836 11.9119C20.4586 11.2582 20.3226 10.5755 19.9105 10.0387C19.4984 9.50191 18.874 9.19406 18.1973 9.19406H2.16092C1.4842 9.19406 0.859807 9.50191 0.44774 10.0387C0.035674 10.5755 -0.100324 11.2583 0.0746099 11.912L2.14142 19.6356C2.53794 21.1173 3.88607 22.1521 5.41987 22.1521H14.9384C16.4721 22.1521 17.8203 21.1172 18.2168 19.6356L19.69 14.1304H22.6065C22.7566 15.1756 23.6577 15.9816 24.7437 15.9816H29.4333C30.6242 15.9816 31.593 15.0127 31.593 13.8219V12.5878C31.593 11.3969 30.6242 10.4281 29.4333 10.4281ZM16.4285 19.157C16.2483 19.8305 15.6355 20.3008 14.9384 20.3008H5.41987C4.72273 20.3008 4.10993 19.8305 3.92969 19.157L1.86288 11.4335C1.82864 11.3056 1.88158 11.2109 1.9162 11.1658C1.95081 11.1207 2.02856 11.0452 2.16092 11.0452H18.1974C18.3297 11.0452 18.4075 11.1207 18.4421 11.1658C18.4767 11.2108 18.5296 11.3056 18.4954 11.4334L16.4285 19.157ZM29.7418 13.8219C29.7418 13.992 29.6034 14.1304 29.4333 14.1304H24.7437C24.5736 14.1304 24.4352 13.992 24.4352 13.8219V12.5878C24.4352 12.4177 24.5736 12.2793 24.7437 12.2793H29.4333C29.6034 12.2793 29.7418 12.4177 29.7418 12.5878V13.8219Z" fill="currentColor"/>
<path d="M19.869 26.3481H16.3768V24.8054C16.3768 24.2943 15.9624 23.8799 15.4512 23.8799C14.94 23.8799 14.5256 24.2943 14.5256 24.8054V26.3481H11.6622V24.8054C11.6622 24.2943 11.2478 23.8799 10.7366 23.8799C10.2255 23.8799 9.81106 24.2943 9.81106 24.8054V26.3481H6.94764V24.8054C6.94764 24.2943 6.53322 23.8799 6.02206 23.8799C5.51089 23.8799 5.09648 24.2943 5.09648 24.8054V26.3481H1.60429C1.09312 26.3481 0.678711 26.7625 0.678711 27.2736C0.678711 27.7848 1.09312 28.1992 1.60429 28.1992H19.869C20.3801 28.1992 20.7946 27.7848 20.7946 27.2736C20.7946 26.7625 20.3801 26.3481 19.869 26.3481Z" fill="currentColor"/>
</svg>
