<svg width="45" height="45" viewBox="0 0 32 32" fill="none" xmlns="http://www.w3.org/2000/svg">
<path d="M16 0C7.17706 0 0 7.17706 0 16C0 24.8229 7.17706 32 16 32C24.8229 32 32 24.8217 32 16C32 7.17831 24.8229 0 16 0ZM16 29.5213C8.54531 29.5213 2.47869 23.4559 2.47869 16C2.47869 8.54406 8.54531 2.47869 16 2.47869C23.4559 2.47869 29.5213 8.54406 29.5213 16C29.5213 23.4559 23.4547 29.5213 16 29.5213Z" fill="#283159"/>
<path d="M23.3357 10.4463C22.8313 9.98775 22.0468 10.0237 21.5858 10.5306L14.0257 18.8553L10.3734 15.1423C9.89124 14.6539 9.10799 14.6465 8.62093 15.1274C8.13262 15.607 8.12518 16.3915 8.60606 16.8798L13.178 21.5274C13.4122 21.7653 13.7295 21.8979 14.0616 21.8979C14.0691 21.8979 14.0777 21.8979 14.0852 21.8992C14.4272 21.8918 14.7495 21.7455 14.9787 21.4927L23.4199 12.1976C23.8798 11.6894 23.8426 10.9061 23.3357 10.4463Z" fill="#283159"/>
</svg>
