<svg xmlns="http://www.w3.org/2000/svg" version="1.1" xmlnsXlink="http://www.w3.org/1999/xlink" xmlnssvgjs="http://svgjs.com/svgjs" width="45" height="45" x="0" y="0" viewBox="0 0 512 512" style="enable-background:new 0 0 512 512" xmlSpace="preserve" class=""><g><g xmlns="http://www.w3.org/2000/svg"><path d="m387.995 30h18.005c8.284 0 15-6.716 15-15s-6.716-15-15-15h-300c-8.284 0-15 6.716-15 15s6.716 15 15 15h18.005l-31.97 81.523c-.684 1.746-1.035 3.603-1.035 5.477v300c0 1.227.15 2.448.448 3.638l20 80c1.669 6.677 7.669 11.362 14.552 11.362h260c6.883 0 12.883-4.685 14.552-11.362l20-80c.298-1.19.448-2.411.448-3.638v-300c0-1.874-.351-3.731-1.035-5.477zm-231.765 0h199.54l28.235 72h-256.01zm218.059 452h-236.578l-12.5-50h261.577zm16.711-80h-270v-270h270z" fill="currentColor" data-original="#000000" class=""></path><path d="m256 362c52.383 0 95-42.617 95-95s-42.617-95-95-95-95 42.617-95 95 42.617 95 95 95zm0-160c35.841 0 65 29.159 65 65s-29.159 65-65 65-65-29.159-65-65 29.159-65 65-65z" fill="currentColor" data-original="#000000" class=""></path></g></g></svg>