<svg xmlns="http://www.w3.org/2000/svg" version="1.1" xmlnsxlink="http://www.w3.org/1999/xlink" xmlnssvgjs="http://svgjs.com/svgjs" width="512" height="512" x="0" y="0" viewBox="0 0 512 512" style="enable-background:new 0 0 512 512" xmlspace="preserve" class=""><g><g xmlns="http://www.w3.org/2000/svg"><path d="m487.659 272.65-64.584-204.537-10.2-32.174c-2.938-9.312-13.283-16.606-23.553-16.606h-35.821v-.315c0-7.729-6.287-14.018-14.015-14.018h-166.973c-7.727 0-14.014 6.288-14.014 14.018v.315h-35.822c-10.271 0-20.616 7.294-23.552 16.602l-10.174 32.185-64.608 204.529c-13.847 2.663-24.343 14.877-24.343 29.507v23.533c0 15.85 12.319 28.864 27.872 29.967v91.04c0 33.251 27.04 60.304 60.275 60.304h336.281c33.221 0 60.247-27.052 60.247-60.304v-91.082c15.294-1.366 27.325-14.261 27.325-29.925v-23.533c0-14.629-10.496-26.844-24.341-29.506zm-98.337-238.317c3.762 0 8.256 2.974 9.251 6.129l10.2 32.176 62.982 199.467h-22.001l-57.576-182.159-6.454-20.383c-2.778-8.801-10.71-14.269-20.699-14.269h-11.523v-20.961zm-293.231 180.464c4.607.586 9.762 2.009 15.419 4.29 13.16 5.254 23.415 5.254 36.584-.003 13.196-5.288 23.518-5.991 30.681-2.09 5.952 3.241 10.383 10.073 13.226 20.32-5.626 3.344-9.347 9.066-9.347 15.557v19.233h-104.677zm133.459-47.287h36.102c10.111 25.579 14.197 47.058 12.676 66.7h-60.885c-1.582-20.033 2.395-41.962 12.107-66.7zm47.067-16.238c0 .671-.564 1.238-1.233 1.238h-4.596c-.023 0-.045 0-.068 0h-46.24c-.025 0-.051 0-.076 0h-4.62c-.657 0-1.233-.579-1.233-1.238v-15.775c0-.633.588-1.209 1.233-1.209h55.6c.669 0 1.233.554 1.233 1.209zm-86.464 135.832h1.933l-19.486 19.497-19.486-19.497zm-73.238 0-19.476 19.486-19.47-19.486zm18.099 3.11 26.982 26.997-13.69 13.697-13.287 13.294-26.978-27zm24.294 50.905 13.292-13.299 26.982 26.996-20.815 20.826c-1.022 1.023-2.261 1.759-3.618 2.167-.814.245-1.671.351-2.549.372-2.912.069-5.553-1.924-6.166-2.538l-20.813-20.83zm23.896-23.909 26.982-26.997 26.982 26.996-26.982 26.996zm45.081-30.106h38.972l-19.486 19.496zm57.063-15h-87.695v-19.233c0-1.693 2.541-3.661 5.816-3.661h7.204c.007 0 .014.001.021.001.005 0 .009-.001.014-.001h74.356c.005 0 .009.001.014.001.007 0 .014-.001.021-.001h7.203c3.292 0 5.846 1.968 5.846 3.661v19.233h-12.788zm27.783-19.544c10.31-14.546 27.558-22.473 46.713-21.284 2.138.125 4.226-.66 5.74-2.172 1.514-1.513 2.305-3.603 2.173-5.739-.804-13.053 3.597-25.773 12.074-34.899 6.45-6.943 14.766-11.281 23.797-12.523l30.396 96.163h-120.876v-19.233c0-.107-.015-.208-.017-.313zm-139.631-232.56h165.001v49.656h-62.858c-4.143 0-7.5 3.358-7.5 7.5s3.357 7.5 7.5 7.5h63.844c7.728 0 14.015-6.288 14.015-14.018v-.344h11.523c3.45 0 5.603 1.273 6.396 3.791l6.455 20.385 21.203 67.082c-11.463 2.121-21.954 7.885-30.189 16.75-9.488 10.213-15.131 23.737-16.031 37.992-18.747.804-35.633 8.679-47.493 22.056-3.316-2.395-7.467-3.884-11.994-4.091 1.396-20.48-2.523-42.445-12.088-67.875 6.039-2.368 10.333-8.241 10.333-15.111v-15.775c0-8.938-7.282-16.209-16.233-16.209h-55.6c-8.951 0-16.233 7.271-16.233 16.209v15.775c0 6.887 4.315 12.771 10.378 15.128-7.367 19.836-11.273 38.159-11.773 55.374-4.008-8.239-9.42-14.259-16.207-17.954-11.277-6.14-25.889-5.689-43.424 1.336-1.849.738-3.569 1.331-5.212 1.786.966-15.353 7.526-19.417 14.966-24.011 1.708-1.055 3.475-2.146 5.175-3.375 3.357-2.427 4.11-7.116 1.683-10.472-2.428-3.356-7.116-4.11-10.472-1.683-1.257.909-2.72 1.812-4.268 2.768-8.931 5.515-20.813 12.87-22.085 36.782-1.645-.454-3.365-1.047-5.215-1.785-5.792-2.336-11.28-3.938-16.432-4.834l33.459-105.857 6.459-20.396c.792-2.511 2.944-3.784 6.395-3.784h11.522v.344c0 7.729 6.287 14.018 14.014 14.018h65.746c4.142 0 7.5-3.358 7.5-7.5s-3.358-7.5-7.5-7.5h-64.76zm-70.246 52.64 10.176-32.189c.992-3.145 5.486-6.118 9.248-6.118h35.822v20.962h-11.523c-9.99 0-17.921 5.468-20.697 14.262l-6.458 20.393-57.576 182.154h-22zm-88.254 253.049v-23.533c0-8.3 6.734-15.052 15.011-15.052h26.752l35.191 35.219c.058.062.11.128.17.188l18.219 18.229h-80.332c-8.277.001-15.011-6.752-15.011-15.051zm482 0c0 8.299-6.733 15.052-15.011 15.052h-105.695c-4.143 0-7.5 3.358-7.5 7.5s3.357 7.5 7.5 7.5h93.382v90.956c0 24.98-20.298 45.304-45.247 45.304h-336.282c-24.965 0-45.275-20.323-45.275-45.304v-90.956h82.463l4.375 4.377 26.114 26.128c4.47 4.472 10.428 6.935 16.776 6.935 6.349 0 12.307-2.463 16.776-6.935l26.114-26.128 4.375-4.377h117.172c4.143 0 7.5-3.358 7.5-7.5s-3.357-7.5-7.5-7.5h-102.18l18.219-18.229c.001-.001.002-.003.004-.004l35.385-35.404h17.184 138.611 37.729c8.277 0 15.011 6.752 15.011 15.052z" fill="#283159" data-original="#000000" class=""></path><path d="m346.687 445.831c0 4.142 3.357 7.5 7.5 7.5h43.869c4.143 0 7.5-3.358 7.5-7.5s-3.357-7.5-7.5-7.5h-43.869c-4.143 0-7.5 3.358-7.5 7.5z" fill="#283159" data-original="#000000" class=""></path><path d="m309.453 438.331h-43.869c-4.143 0-7.5 3.358-7.5 7.5s3.357 7.5 7.5 7.5h43.869c4.143 0 7.5-3.358 7.5-7.5s-3.357-7.5-7.5-7.5z" fill="#283159" data-original="#000000" class=""></path><path d="m220.85 438.331h-43.898c-4.142 0-7.5 3.358-7.5 7.5s3.358 7.5 7.5 7.5h43.898c4.142 0 7.5-3.358 7.5-7.5s-3.358-7.5-7.5-7.5z" fill="#283159" data-original="#000000" class=""></path><path d="m132.247 438.331h-43.898c-4.142 0-7.5 3.358-7.5 7.5s3.358 7.5 7.5 7.5h43.898c4.142 0 7.5-3.358 7.5-7.5s-3.358-7.5-7.5-7.5z" fill="#283159" data-original="#000000" class=""></path><path d="m313.113 411.313h43.869c4.143 0 7.5-3.358 7.5-7.5s-3.357-7.5-7.5-7.5h-43.869c-4.143 0-7.5 3.358-7.5 7.5s3.358 7.5 7.5 7.5z" fill="#283159" data-original="#000000" class=""></path><path d="m224.482 411.313h43.898c4.143 0 7.5-3.358 7.5-7.5s-3.357-7.5-7.5-7.5h-43.898c-4.142 0-7.5 3.358-7.5 7.5s3.358 7.5 7.5 7.5z" fill="#283159" data-original="#000000" class=""></path></g></g></svg>