<svg xmlns="http://www.w3.org/2000/svg" version="1.1" xmlnsxlink="http://www.w3.org/1999/xlink" xmlnssvgjs="http://svgjs.com/svgjs" width="40" height="40" x="0" y="0" viewBox="0 0 128 128" style="enable-background:new 0 0 512 512" xmlspace="preserve" class=""><g><g xmlns="http://www.w3.org/2000/svg"><path d="m123.25 49.256h-9.875v-13.515c0-12.544-9.469-22.75-21.107-22.75h-56.536c-11.638 0-21.107 10.206-21.107 22.75v13.515h-9.875a4.756 4.756 0 0 0 -4.75 4.75v6.628a4.756 4.756 0 0 0 4.75 4.75h5.067l8.107 40.2a11.786 11.786 0 0 0 11.518 9.427h69.116a11.786 11.786 0 0 0 11.518-9.427l8.107-40.2h5.067a4.756 4.756 0 0 0 4.75-4.75v-6.628a4.756 4.756 0 0 0 -4.75-4.75zm-13.375-13.515v13.515h-6.5v-13.515c0-7.03-4.982-12.75-11.107-12.75h-14.018v-6.5h14.018c9.709 0 17.607 8.636 17.607 19.25zm-42.118 47.8a7.228 7.228 0 0 1 -8.613-.819l-33.216-29.966h76.144l-33.216 29.963a7.31 7.31 0 0 1 -1.099.819zm24.511-57.05c4.194 0 7.607 4.15 7.607 9.25v13.515h-71.75v-13.515c0-5.1 3.413-9.25 7.607-9.25zm-17.518-10v6.5h-21.5v-6.5zm-56.625 19.25c0-10.614 7.9-19.25 17.607-19.25h14.018v6.5h-14.018c-6.125 0-11.107 5.72-11.107 12.75v13.515h-6.5zm-14.625 24.893v-6.628a1.25 1.25 0 0 1 1.25-1.25h15.95l10.119 9.128h-26.069a1.251 1.251 0 0 1 -1.25-1.25zm109.448 13h-10.448a1.75 1.75 0 0 0 0 3.5h9.742l-5.6 27.754a8.274 8.274 0 0 1 -8.086 6.62h-69.114a8.275 8.275 0 0 1 -8.087-6.62l-5.6-27.754h9.745a1.75 1.75 0 0 0 0-3.5h-10.448l-1.664-8.251h21.312l22.1 19.934a10.719 10.719 0 0 0 7.2 2.783c.24 0 .48-.016.72-.032a10.712 10.712 0 0 0 6.48-2.746l22.1-19.938h21.313zm11.552-13a1.252 1.252 0 0 1 -1.25 1.25h-26.071l10.121-9.128h15.95a1.251 1.251 0 0 1 1.25 1.25z" fill="#283159" data-original="#000000"></path><path d="m28.87 86.259h11.88a1.75 1.75 0 0 0 0-3.5h-11.88a1.75 1.75 0 0 0 0 3.5z" fill="#283159" data-original="#000000"></path><path d="m58.25 94.258a1.75 1.75 0 0 0 -1.75-1.75h-11.88a1.75 1.75 0 1 0 0 3.5h11.88a1.75 1.75 0 0 0 1.75-1.75z" fill="#283159" data-original="#000000"></path><path d="m35.5 93.384a1.749 1.749 0 0 0 -1.75-1.75h-6.13a1.75 1.75 0 0 0 0 3.5h6.13a1.75 1.75 0 0 0 1.75-1.75z" fill="#283159" data-original="#000000"></path><path d="m41.314 101.634h-11.88a1.75 1.75 0 0 0 0 3.5h11.88a1.75 1.75 0 1 0 0-3.5z" fill="#283159" data-original="#000000"></path><path d="m85.5 84.508a1.749 1.749 0 0 0 1.75 1.75h11.88a1.75 1.75 0 0 0 0-3.5h-11.88a1.75 1.75 0 0 0 -1.75 1.75z" fill="#283159" data-original="#000000"></path><path d="m83.38 92.508h-11.88a1.75 1.75 0 0 0 0 3.5h11.88a1.75 1.75 0 0 0 0-3.5z" fill="#283159" data-original="#000000"></path><path d="m69.94 101.633h-11.88a1.75 1.75 0 0 0 0 3.5h11.88a1.75 1.75 0 0 0 0-3.5z" fill="#283159" data-original="#000000"></path><path d="m94.25 91.633a1.75 1.75 0 0 0 0 3.5h6.13a1.75 1.75 0 0 0 0-3.5z" fill="#283159" data-original="#000000"></path><path d="m98.566 101.633h-11.881a1.75 1.75 0 0 0 0 3.5h11.881a1.75 1.75 0 0 0 0-3.5z" fill="#283159" data-original="#000000"></path></g></g></svg>