<svg width="26" height="26" viewBox="0 0 26 26" fill="none" xmlns="http://www.w3.org/2000/svg">
<path d="M4.03496 14.182H17.7271C18.3798 14.182 18.9089 13.6529 18.9089 13.0002C18.9089 12.3475 18.3798 11.8184 17.7271 11.8184H4.03496L5.56298 10.2904C6.02452 9.82897 6.02452 9.08064 5.56298 8.6191C5.10159 8.15756 4.35327 8.15756 3.89165 8.6191L0.34643 12.1643C0.319012 12.1917 0.29317 12.2203 0.268588 12.2502C0.2626 12.2575 0.257479 12.2654 0.251648 12.2729C0.233606 12.2958 0.215879 12.3188 0.199648 12.3431C0.194921 12.3502 0.191061 12.3577 0.186412 12.3648C0.170182 12.3902 0.154267 12.4158 0.139927 12.4425C0.13717 12.4478 0.134885 12.4534 0.132127 12.4587C0.117236 12.4876 0.102897 12.5169 0.0903697 12.5472C0.0887939 12.5509 0.0876909 12.5548 0.0861939 12.5586C0.0733515 12.5904 0.0614545 12.6226 0.0513697 12.6558C0.0500303 12.66 0.0493212 12.6643 0.0481394 12.6686C0.0386061 12.7011 0.0298606 12.734 0.0231636 12.7676C0.0211939 12.7776 0.0203273 12.7879 0.0185152 12.798C0.0136303 12.8259 0.00874545 12.8538 0.00598788 12.8822C0.0019697 12.9212 0 12.9606 0 13.0002C0 13.0397 0.0019697 13.0791 0.00598788 13.1182C0.00874545 13.147 0.0137879 13.1752 0.0185939 13.2033C0.0203273 13.2131 0.0211939 13.2231 0.0231636 13.2328C0.0299394 13.2667 0.0386061 13.2999 0.0482182 13.3327C0.0494 13.3366 0.0501091 13.3407 0.0512909 13.3446C0.0614545 13.3779 0.0733515 13.4104 0.0863515 13.4426C0.0877697 13.446 0.0887939 13.4497 0.0902909 13.4532C0.102897 13.4837 0.117315 13.5132 0.132364 13.5422C0.134964 13.5474 0.13717 13.5527 0.139848 13.5578C0.154345 13.5847 0.170339 13.6106 0.186806 13.6362C0.191218 13.6431 0.195 13.6504 0.19957 13.6572C0.215879 13.6815 0.233764 13.7047 0.251727 13.7277C0.257479 13.7351 0.2626 13.7429 0.268509 13.7502C0.29317 13.78 0.319012 13.8087 0.346352 13.836L3.89157 17.3813C4.12234 17.6121 4.42481 17.7275 4.72727 17.7275C5.02974 17.7275 5.33221 17.6121 5.5629 17.3813C6.02444 16.9197 6.02444 16.1715 5.5629 15.7099L4.03496 14.182Z" fill="#fff"/>
<path d="M16.3323 3.33276C13.1064 3.33276 10.105 4.9331 8.30354 7.61354C7.93954 8.15521 8.08356 8.88951 8.62523 9.25359C9.16698 9.61759 9.9012 9.47372 10.2654 8.9319C11.6269 6.90587 13.8949 5.69632 16.3323 5.69632C20.3595 5.6964 23.636 8.97279 23.636 13.0001C23.636 17.0274 20.3595 20.3038 16.3323 20.3038C13.902 20.3038 11.6378 19.0997 10.2752 17.0829C9.90971 16.542 9.17525 16.3999 8.63429 16.7652C8.09349 17.1306 7.9512 17.8653 8.31662 18.4061C10.1194 21.0744 13.1158 22.6675 16.3323 22.6675C21.6628 22.6675 25.9996 18.3307 25.9996 13.0001C25.9996 7.66948 21.6628 3.33276 16.3323 3.33276Z" fill="#fff"/>
</svg>
