<svg xmlns="http://www.w3.org/2000/svg" viewBox="0 0 193.72 72.08"><defs><style>.cls-1{fill:#fff;}</style></defs><g id="Layer_2" data-name="Layer 2"><g id="Post_1" data-name="Post 1"><g id="Image"><g id="Image_Image" data-name="Image Image"><path class="cls-1" d="M193.64,43.53a2,2,0,0,0-1-.87,11.35,11.35,0,0,1-5.43-6.57c-1.08-3.79.24-7.8,1.55-11.51-2.7.14-5,2-6.63,4.2s-2.57,4.76-3.87,7.14A30.61,30.61,0,0,1,171,44.74a1.39,1.39,0,0,1-.86.41c-.9,0-.91-1.36-.6-2.21l4.37-11.88a7.3,7.3,0,0,0,.67-3.88,4.91,4.91,0,0,0-2.68-3.26,13.4,13.4,0,0,0-4.19-1.17,4.38,4.38,0,0,0-2.16,0,4.23,4.23,0,0,0-1.86,1.7c-4.94,6.89-7.93,15.36-14.41,20.83-.53.45-1.36.87-1.87.39a1.49,1.49,0,0,1-.17-1.4c1.12-4.76,3.89-9.07,4.58-13.92.31-2.15.08-4.61-1.52-6.08-1.76-1.62-4.47-1.45-6.85-1.18a4.27,4.27,0,0,0-1.93.55,3.85,3.85,0,0,0-1.29,2.4c-.51,2.19-.65,4.48-1.48,6.57a7.71,7.71,0,0,1-4.85,4.16,8.26,8.26,0,0,1-3.51.27c-.53,0-1.06-.12-1.58-.21,0-.28-.05-.55-.08-.82a23.12,23.12,0,0,0-3-8l-.23-.4h.13a8.23,8.23,0,0,0-.64-3.32,4.12,4.12,0,0,0-3.94-2.49h-.15c-7.32.14-15.85,11.72-15.85,11.72-.43.69-.85,1.39-1.23,2.11-5.16,1.53-7.1.41-7.1.41a23.12,23.12,0,0,0-3-8l-.23-.4h.13A8.23,8.23,0,0,0,93,24.29a4.12,4.12,0,0,0-3.94-2.49H88.9a12.08,12.08,0,0,0-4.21-2.43,15.14,15.14,0,0,0-8.36.1c-9.23,2.41-16.26,9.68-22.79,16.64a24.06,24.06,0,0,0-1.36-17c-1.47-3.08-4.49-6.17-7.79-5.3s-4.37,5-5.16,8.41A50.11,50.11,0,0,1,24.1,47.93C27.88,36.32,30.19,23.65,26.62,12,25.1,7,22.05,1.94,17.06.43A12.14,12.14,0,0,0,6.9,2.29,19.28,19.28,0,0,0,.37,10.57a2.3,2.3,0,0,0-.16,2.15l.08.12a2.62,2.62,0,0,0,2.18.56c3.47-.19,7.35-.21,9.91,2.14,2.08,1.91,2.72,4.9,3.08,7.7a74.08,74.08,0,0,1-4,35.25c-.84,2.27-5.72,12.09-2.35,13.23,4.39,1.5,9.4-2.08,12.45-4.82C30.34,59,36.86,49,43.28,39.07L42.2,51.16c-.16,1.83-.15,4,1.39,5,1.77,1.14,4.06-.25,5.61-1.67,7.87-7.23,13.88-17.16,23.85-21a39.57,39.57,0,0,0-6,18.7C67,55,67.2,58.05,69.15,60c2.24,2.26,5.93,2.25,9,1.32,6.1-1.87,10.88-6.69,14.45-12a34,34,0,0,0,2.3-3.87c4.69,1,5.06.61,5.06.61h0a39.47,39.47,0,0,0-.84,6.13c-.15,2.76.1,5.83,2.05,7.8,2.24,2.26,5.93,2.25,9,1.32,6.1-1.87,10.88-6.69,14.45-12a34,34,0,0,0,2.3-3.87,3.4,3.4,0,0,0,1.18.52,16.08,16.08,0,0,0,6.55.38c-1.55,4.24-4,18.52,4.31,17.24a10.32,10.32,0,0,0,4.86-2.58c7.26-6,12-14.48,16.51-22.75-1.76,5.33-3.54,10.92-2.61,16.46.33,2,1.23,4.1,3.12,4.72,1.62.53,3.36-.26,4.79-1.18,6.12-3.93,10.17-10.3,14-16.46a7.15,7.15,0,0,0,14.06,2.65A1.65,1.65,0,0,0,193.64,43.53ZM85.19,31.18a2.9,2.9,0,0,1,1-.56,2.71,2.71,0,0,1,.41-.09,1.37,1.37,0,0,1,1,.18c1,.69.61,2.38,0,3.14a8.54,8.54,0,0,0-1.46-.94,9.1,9.1,0,0,0-1.69-.5C84.4,32,84.89,31.45,85.19,31.18ZM87.82,47a16.22,16.22,0,0,1-4.92,4.7A7.54,7.54,0,0,1,79.51,53a3.76,3.76,0,0,1-3-1.1c-.82-1-.71-2.43-.55-3.6A22.94,22.94,0,0,1,80.09,38a47.94,47.94,0,0,0,9.48,5.62A16.49,16.49,0,0,1,87.82,47Zm29.37-15.84a2.9,2.9,0,0,1,1-.56,2.71,2.71,0,0,1,.41-.09,1.37,1.37,0,0,1,1,.18c1,.69.61,2.38,0,3.14a8.54,8.54,0,0,0-1.46-.94,9.1,9.1,0,0,0-1.69-.5C116.4,32,116.89,31.45,117.19,31.18ZM119.82,47a16.22,16.22,0,0,1-4.92,4.7A7.54,7.54,0,0,1,111.51,53a3.76,3.76,0,0,1-3-1.1c-.82-1-.71-2.43-.55-3.6A22.94,22.94,0,0,1,112.09,38a47.94,47.94,0,0,0,9.48,5.62A16.49,16.49,0,0,1,119.82,47Z"/></g></g></g></g></svg>