<svg xmlns="http://www.w3.org/2000/svg" version="1.1" xmlnsxlink="http://www.w3.org/1999/xlink" xmlnssvgjs="http://svgjs.com/svgjs" width="45" height="45" x="0" y="0" viewBox="0 0 510 510" style="enable-background:new 0 0 512 512" xmlspace="preserve" class=""><g><g xmlns="http://www.w3.org/2000/svg"><path d="m420 465c0-93.585-66.272-171.971-154.346-190.725 2.784-5.846 4.346-12.38 4.346-19.275 0-24.814-20.186-45-45-45s-45 20.186-45 45c0 6.895 1.562 13.429 4.346 19.275-88.075 18.754-154.346 97.14-154.346 190.725v15h-30v30h450v-30h-30zm-210-210c0-8.271 6.729-15 15-15s15 6.729 15 15c0 8.272-6.729 15-15 15s-15-6.728-15-15zm15 45c75.387 0 139.127 50.82 158.762 120h-317.524c19.635-69.18 83.375-120 158.762-120zm-165 180c.115-12.005-.348-18.545.689-30h328.621c1.037 11.457.573 17.928.69 30z" fill="currentColor" data-original="#000000" class=""></path><path d="m390 0c-66.168 0-120 53.832-120 120s53.832 120 120 120 120-53.832 120-120-53.832-120-120-120zm0 210c-49.626 0-90-40.374-90-90s40.374-90 90-90 90 40.374 90 90-40.374 90-90 90z" fill="currentColor" data-original="#000000" class=""></path><path d="m405 60h-30v66.213l41.894 41.893 21.212-21.213-33.106-33.106z" fill="currentColor" data-original="#000000" class=""></path></g></g></svg>